<?xml version="1.0" encoding="UTF-8"?>
<svg id="_レイヤー_2" data-name="レイヤー 2" xmlns="http://www.w3.org/2000/svg" xmlns:xlink="http://www.w3.org/1999/xlink" viewBox="0 0 247.22 176.19">
  <defs>
    <style>
      .cls-1, .cls-2, .cls-3, .cls-4, .cls-5 {
        fill: none;
      }

      .cls-6 {
        clip-path: url(#clippath);
      }

      .cls-7 {
        fill: #fff;
      }

      .cls-8 {
        fill: #ff7bac;
      }

      .cls-9 {
        fill: #ff931e;
      }

      .cls-10 {
        fill: #d4145a;
      }

      .cls-11 {
        fill: #3fa9f5;
      }

      .cls-12 {
        fill: #7ac943;
      }

      .cls-2, .cls-3, .cls-4, .cls-5 {
        stroke-linejoin: round;
        stroke-width: 3px;
      }

      .cls-2, .cls-4 {
        stroke: #fff;
      }

      .cls-3 {
        stroke: #ff0;
      }

      .cls-3, .cls-4, .cls-5 {
        stroke-linecap: round;
      }

      .cls-5 {
        stroke: aqua;
      }
    </style>
    <clipPath id="clippath">
      <rect class="cls-1" x="106.35" y="122.77" width="18" height="6"/>
    </clipPath>
  </defs>
  <g id="_レイヤー_1-2" data-name="レイヤー 1">
    <g>
      <g>
        <g>
          <g>
            <g>
              <path class="cls-4" d="m118.7,125.02c.11-.06.21-.13.32-.17.22-.07.44.03.55.22.11.2.08.45-.11.6-.57.43-.74,1.05-.79,1.72,0,.08,0,.17.01.25.04.3.13.37.42.39.32.02.64.04.97.06-.08-.8.09-1.55.52-2.22.14-.23.34-.43.53-.61.1-.09.25-.14.39-.15.2-.03.38.11.45.3.08.2.02.41-.16.56-.62.5-.79,1.18-.76,1.92,0,.32.13.41.43.49,1.42.36,2.73.96,3.88,1.86,3.34,2.61,4.9,6.05,4.42,10.25-.47,4.16-2.73,7.16-6.53,8.95-1.94.92-4.01,1.22-6.13.87-4.46-.74-7.5-3.26-9.04-7.52-.69-1.91-.79-3.88-.35-5.85.85-3.76,3.06-6.44,6.59-8.02,1.04-.46,2.14-.73,3.28-.84.05,0,.1-.01.14-.02-.15-1.16.11-2.18.97-3.03Zm-6.15,6.1c2.01-.3,3.69.32,4.89,1.94,1.26,1.7,1.38,3.58.34,5.44-1.84,3.29-6.53,3.4-8.54.21-.25-.4-.43-.85-.63-1.26,0-.01,0,0,0,.03-.33,1.97-.14,3.9.67,5.72,1.49,3.33,4.04,5.38,7.63,6.06,2.2.42,4.33.12,6.31-.9,3.4-1.75,5.33-4.57,5.64-8.38.44-5.28-3.26-9.97-8.54-10.85-1.75-.29-3.46-.13-5.13.48-.97.35-1.87.83-2.7,1.47,0,.01-.02.02-.02.04.02,0,.04,0,.09,0Zm.79,3.85s.1-.03.15-.05c.58-.23.92-.81.82-1.39-.1-.59-.59-1.03-1.17-1.07-.6-.03-1.16.36-1.31.95-.23.89.52,1.74,1.52,1.56Z"/>
              <path class="cls-10" d="m118.7,125.02c.11-.06.21-.13.32-.17.22-.07.44.03.55.22.11.2.08.45-.11.6-.57.43-.74,1.05-.79,1.72,0,.08,0,.17.01.25.04.3.13.37.42.39.32.02.64.04.97.06-.08-.8.09-1.55.52-2.22.14-.23.34-.43.53-.61.1-.09.25-.14.39-.15.2-.03.38.11.45.3.08.2.02.41-.16.56-.62.5-.79,1.18-.76,1.92,0,.32.13.41.43.49,1.42.36,2.73.96,3.88,1.86,3.34,2.61,4.9,6.05,4.42,10.25-.47,4.16-2.73,7.16-6.53,8.95-1.94.92-4.01,1.22-6.13.87-4.46-.74-7.5-3.26-9.04-7.52-.69-1.91-.79-3.88-.35-5.85.85-3.76,3.06-6.44,6.59-8.02,1.04-.46,2.14-.73,3.28-.84.05,0,.1-.01.14-.02-.15-1.16.11-2.18.97-3.03Zm-6.15,6.1c2.01-.3,3.69.32,4.89,1.94,1.26,1.7,1.38,3.58.34,5.44-1.84,3.29-6.53,3.4-8.54.21-.25-.4-.43-.85-.63-1.26,0-.01,0,0,0,.03-.33,1.97-.14,3.9.67,5.72,1.49,3.33,4.04,5.38,7.63,6.06,2.2.42,4.33.12,6.31-.9,3.4-1.75,5.33-4.57,5.64-8.38.44-5.28-3.26-9.97-8.54-10.85-1.75-.29-3.46-.13-5.13.48-.97.35-1.87.83-2.7,1.47,0,.01-.02.02-.02.04.02,0,.04,0,.09,0Zm.79,3.85s.1-.03.15-.05c.58-.23.92-.81.82-1.39-.1-.59-.59-1.03-1.17-1.07-.6-.03-1.16.36-1.31.95-.23.89.52,1.74,1.52,1.56Z"/>
            </g>
            <g>
              <path class="cls-4" d="m113.84,161.56c-.05.34-.07.65-.04.94s.12.55.27.78.37.43.67.58.68.28,1.16.36l1.46.23,1.46.23,1.46.23,1.46.23c1.08.17,1.94.25,2.64.2s1.25-.25,1.71-.63.84-.92,1.2-1.69.71-1.76,1.11-3c.19-.59.38-1.18.6-1.73s.49-1.06.82-1.48.73-.75,1.23-.95,1.1-.26,1.83-.14c.3.05.66.16,1.02.35s.73.46,1.04.83.57.82.71,1.39.18,1.24.06,2.04c-.5,3.13-1.27,5.51-2.2,7.3s-2.03,3.02-3.19,3.82-2.4,1.2-3.6,1.35-2.38.06-3.43-.11l-2.42-.39-2.42-.39-2.42-.39-2.42-.39c-1.39-.22-2.6-.59-3.62-1.09s-1.87-1.14-2.51-1.89-1.09-1.63-1.33-2.62-.27-2.08-.08-3.27l.54-3.34.54-3.34.54-3.34.54-3.34-2.81-.45-2.81-.45-2.81-.45-2.81-.45c-.18,1.1-.43,2.32-.8,3.59s-.85,2.58-1.47,3.87-1.39,2.55-2.33,3.72-2.06,2.23-3.39,3.13c-1.39.91-3.01,1.61-4.72,2.15s-3.48.91-5.18,1.16-3.3.37-4.66.4-2.46-.03-3.16-.14c-.64-.1-1.17-.31-1.6-.59s-.77-.64-1.01-1.03-.4-.83-.48-1.27-.08-.89-.01-1.32c.13-.8.42-1.39.81-1.83s.89-.72,1.43-.89,1.12-.25,1.69-.28,1.11,0,1.58.02c3.24.14,5.78-.15,7.79-.76s3.5-1.53,4.64-2.66,1.93-2.47,2.54-3.9,1.06-2.96,1.5-4.48l-1.12-.18-1.12-.18-1.12-.18-1.12-.18c-1.03-.17-1.96-.47-2.76-.88s-1.48-.96-2-1.6-.9-1.38-1.11-2.22-.24-1.75-.08-2.75l1.17-7.27,1.17-7.27,1.17-7.27,1.17-7.27c.17-1.07.53-1.96,1.02-2.7s1.12-1.31,1.85-1.73,1.54-.69,2.41-.82,1.79-.11,2.71.04l8.97,1.44,8.97,1.44,8.97,1.44,8.97,1.44c1.03.17,1.96.47,2.76.89s1.47.97,2,1.61.9,1.39,1.11,2.22.24,1.74.08,2.72l-1.17,7.27-1.17,7.27-1.17,7.27-1.17,7.27c-.17,1.07-.52,1.96-1.01,2.7s-1.11,1.31-1.83,1.73-1.54.69-2.41.82-1.8.11-2.74-.04l-1.47-.24-1.47-.24-1.47-.24-1.47-.24-.46,2.86-.46,2.86-.46,2.86-.46,2.86Zm12.45-40.65l.15-.92.15-.92.15-.92.15-.92c.05-.34.03-.6-.04-.81s-.19-.36-.34-.47-.32-.18-.49-.23-.34-.08-.48-.1l-8-1.29-8-1.29-8-1.29-8-1.29c-.53-.09-.95-.09-1.27-.02s-.56.19-.73.38-.29.41-.37.68-.14.57-.19.89l-.11.69-.11.69-.11.69-.11.69,8.94,1.44,8.94,1.44,8.94,1.44,8.94,1.44Zm-36.76.5l-.81,5.04-.81,5.04-.81,5.04-.81,5.04,8.94,1.44,8.94,1.44,8.94,1.44,8.94,1.44.81-5.04.81-5.04.81-5.04.81-5.04-8.94-1.44-8.94-1.44-8.94-1.44-8.94-1.44Z"/>
              <path class="cls-9" d="m113.84,161.56c-.05.34-.07.65-.04.94s.12.55.27.78.37.43.67.58.68.28,1.16.36l1.46.23,1.46.23,1.46.23,1.46.23c1.08.17,1.94.25,2.64.2s1.25-.25,1.71-.63.84-.92,1.2-1.69.71-1.76,1.11-3c.19-.59.38-1.18.6-1.73s.49-1.06.82-1.48.73-.75,1.23-.95,1.1-.26,1.83-.14c.3.05.66.16,1.02.35s.73.46,1.04.83.57.82.71,1.39.18,1.24.06,2.04c-.5,3.13-1.27,5.51-2.2,7.3s-2.03,3.02-3.19,3.82-2.4,1.2-3.6,1.35-2.38.06-3.43-.11l-2.42-.39-2.42-.39-2.42-.39-2.42-.39c-1.39-.22-2.6-.59-3.62-1.09s-1.87-1.14-2.51-1.89-1.09-1.63-1.33-2.62-.27-2.08-.08-3.27l.54-3.34.54-3.34.54-3.34.54-3.34-2.81-.45-2.81-.45-2.81-.45-2.81-.45c-.18,1.1-.43,2.32-.8,3.59s-.85,2.58-1.47,3.87-1.39,2.55-2.33,3.72-2.06,2.23-3.39,3.13c-1.39.91-3.01,1.61-4.72,2.15s-3.48.91-5.18,1.16-3.3.37-4.66.4-2.46-.03-3.16-.14c-.64-.1-1.17-.31-1.6-.59s-.77-.64-1.01-1.03-.4-.83-.48-1.27-.08-.89-.01-1.32c.13-.8.42-1.39.81-1.83s.89-.72,1.43-.89,1.12-.25,1.69-.28,1.11,0,1.58.02c3.24.14,5.78-.15,7.79-.76s3.5-1.53,4.64-2.66,1.93-2.47,2.54-3.9,1.06-2.96,1.5-4.48l-1.12-.18-1.12-.18-1.12-.18-1.12-.18c-1.03-.17-1.96-.47-2.76-.88s-1.48-.96-2-1.6-.9-1.38-1.11-2.22-.24-1.75-.08-2.75l1.17-7.27,1.17-7.27,1.17-7.27,1.17-7.27c.17-1.07.53-1.96,1.02-2.7s1.12-1.31,1.85-1.73,1.54-.69,2.41-.82,1.79-.11,2.71.04l8.97,1.44,8.97,1.44,8.97,1.44,8.97,1.44c1.03.17,1.96.47,2.76.89s1.47.97,2,1.61.9,1.39,1.11,2.22.24,1.74.08,2.72l-1.17,7.27-1.17,7.27-1.17,7.27-1.17,7.27c-.17,1.07-.52,1.96-1.01,2.7s-1.11,1.31-1.83,1.73-1.54.69-2.41.82-1.8.11-2.74-.04l-1.47-.24-1.47-.24-1.47-.24-1.47-.24-.46,2.86-.46,2.86-.46,2.86-.46,2.86Zm12.45-40.65l.15-.92.15-.92.15-.92.15-.92c.05-.34.03-.6-.04-.81s-.19-.36-.34-.47-.32-.18-.49-.23-.34-.08-.48-.1l-8-1.29-8-1.29-8-1.29-8-1.29c-.53-.09-.95-.09-1.27-.02s-.56.19-.73.38-.29.41-.37.68-.14.57-.19.89l-.11.69-.11.69-.11.69-.11.69,8.94,1.44,8.94,1.44,8.94,1.44,8.94,1.44Zm-36.76.5l-.81,5.04-.81,5.04-.81,5.04-.81,5.04,8.94,1.44,8.94,1.44,8.94,1.44,8.94,1.44.81-5.04.81-5.04.81-5.04.81-5.04-8.94-1.44-8.94-1.44-8.94-1.44-8.94-1.44Z"/>
            </g>
            <g class="cls-6">
              <g>
                <path class="cls-4" d="m118.7,125.02c.11-.06.21-.13.32-.17.22-.07.44.03.55.22.11.2.08.45-.11.6-.57.43-.74,1.05-.79,1.72,0,.08,0,.17.01.25.04.3.13.37.42.39.32.02.64.04.97.06-.08-.8.09-1.55.52-2.22.14-.23.34-.43.53-.61.1-.09.25-.14.39-.15.2-.03.38.11.45.3.08.2.02.41-.16.56-.62.5-.79,1.18-.76,1.92,0,.32.13.41.43.49,1.42.36,2.73.96,3.88,1.86,3.34,2.61,4.9,6.05,4.42,10.25-.47,4.16-2.73,7.16-6.53,8.95-1.94.92-4.01,1.22-6.13.87-4.46-.74-7.5-3.26-9.04-7.52-.69-1.91-.79-3.88-.35-5.85.85-3.76,3.06-6.44,6.59-8.02,1.04-.46,2.14-.73,3.28-.84.05,0,.1-.01.14-.02-.15-1.16.11-2.18.97-3.03Zm-6.15,6.1c2.01-.3,3.69.32,4.89,1.94,1.26,1.7,1.38,3.58.34,5.44-1.84,3.29-6.53,3.4-8.54.21-.25-.4-.43-.85-.63-1.26,0-.01,0,0,0,.03-.33,1.97-.14,3.9.67,5.72,1.49,3.33,4.04,5.38,7.63,6.06,2.2.42,4.33.12,6.31-.9,3.4-1.75,5.33-4.57,5.64-8.38.44-5.28-3.26-9.97-8.54-10.85-1.75-.29-3.46-.13-5.13.48-.97.35-1.87.83-2.7,1.47,0,.01-.02.02-.02.04.02,0,.04,0,.09,0Zm.79,3.85s.1-.03.15-.05c.58-.23.92-.81.82-1.39-.1-.59-.59-1.03-1.17-1.07-.6-.03-1.16.36-1.31.95-.23.89.52,1.74,1.52,1.56Z"/>
                <path class="cls-10" d="m118.7,125.02c.11-.06.21-.13.32-.17.22-.07.44.03.55.22.11.2.08.45-.11.6-.57.43-.74,1.05-.79,1.72,0,.08,0,.17.01.25.04.3.13.37.42.39.32.02.64.04.97.06-.08-.8.09-1.55.52-2.22.14-.23.34-.43.53-.61.1-.09.25-.14.39-.15.2-.03.38.11.45.3.08.2.02.41-.16.56-.62.5-.79,1.18-.76,1.92,0,.32.13.41.43.49,1.42.36,2.73.96,3.88,1.86,3.34,2.61,4.9,6.05,4.42,10.25-.47,4.16-2.73,7.16-6.53,8.95-1.94.92-4.01,1.22-6.13.87-4.46-.74-7.5-3.26-9.04-7.52-.69-1.91-.79-3.88-.35-5.85.85-3.76,3.06-6.44,6.59-8.02,1.04-.46,2.14-.73,3.28-.84.05,0,.1-.01.14-.02-.15-1.16.11-2.18.97-3.03Zm-6.15,6.1c2.01-.3,3.69.32,4.89,1.94,1.26,1.7,1.38,3.58.34,5.44-1.84,3.29-6.53,3.4-8.54.21-.25-.4-.43-.85-.63-1.26,0-.01,0,0,0,.03-.33,1.97-.14,3.9.67,5.72,1.49,3.33,4.04,5.38,7.63,6.06,2.2.42,4.33.12,6.31-.9,3.4-1.75,5.33-4.57,5.64-8.38.44-5.28-3.26-9.97-8.54-10.85-1.75-.29-3.46-.13-5.13.48-.97.35-1.87.83-2.7,1.47,0,.01-.02.02-.02.04.02,0,.04,0,.09,0Zm.79,3.85s.1-.03.15-.05c.58-.23.92-.81.82-1.39-.1-.59-.59-1.03-1.17-1.07-.6-.03-1.16.36-1.31.95-.23.89.52,1.74,1.52,1.56Z"/>
              </g>
            </g>
          </g>
          <g>
            <path class="cls-4" d="m111.01,101.95c-.21.42-.84,1.39-1.99,1.25-1.24-.14-1.76-1.36-1.63-2.45.15-1.25,1.01-2.16,1.99-2.5.79-.27,1.44-.27,1.93-.27l1.07-2.17-1.61-.05c-.32-.01-.43,0-.53-.01-.69-.08-.75-.64-.72-.89.08-.73.7-.7,1.31-.67l2.42.13c1.18.06,1.1.76,1.09.83-.02.21-.18.51-.24.65l-1.23,2.45c.68.16,1.6.39,2.87,1.03.11-.46.12-.51.25-1.4.06-.4.41-.7.86-.65.77.09.69.79.66,1.1-.06.49-.22,1.25-.35,1.75,1.03.69,1.13.89,1.08,1.31s-.37.79-.85.73c-.26-.03-.47-.19-.79-.43-1.29,2.75-3.48,2.9-3.73,2.87-.37-.04-.73-.37-.67-.86s.23-.53,1.14-.85c1.01-.35,1.45-.86,1.93-2.07-.93-.54-2.02-1.01-3.07-1.2l-1.18,2.36Zm-.39-2.5c-1.38,0-1.71,1.09-1.75,1.41-.03.29.05.63.33.67.37.04.6-.39.81-.82l.61-1.26Z"/>
            <path class="cls-9" d="m111.01,101.95c-.21.42-.84,1.39-1.99,1.25-1.24-.14-1.76-1.36-1.63-2.45.15-1.25,1.01-2.16,1.99-2.5.79-.27,1.44-.27,1.93-.27l1.07-2.17-1.61-.05c-.32-.01-.43,0-.53-.01-.69-.08-.75-.64-.72-.89.08-.73.7-.7,1.31-.67l2.42.13c1.18.06,1.1.76,1.09.83-.02.21-.18.51-.24.65l-1.23,2.45c.68.16,1.6.39,2.87,1.03.11-.46.12-.51.25-1.4.06-.4.41-.7.86-.65.77.09.69.79.66,1.1-.06.49-.22,1.25-.35,1.75,1.03.69,1.13.89,1.08,1.31s-.37.79-.85.73c-.26-.03-.47-.19-.79-.43-1.29,2.75-3.48,2.9-3.73,2.87-.37-.04-.73-.37-.67-.86s.23-.53,1.14-.85c1.01-.35,1.45-.86,1.93-2.07-.93-.54-2.02-1.01-3.07-1.2l-1.18,2.36Zm-.39-2.5c-1.38,0-1.71,1.09-1.75,1.41-.03.29.05.63.33.67.37.04.6-.39.81-.82l.61-1.26Z"/>
          </g>
          <g>
            <path class="cls-4" d="m105.37,136.43c-1.5,4.11-5.01,6.88-9.34,7.38-4.35.5-8.76-1.77-10.89-5.58-.99-1.78-1.53-3.69-1.45-5.73.14-3.98,1.9-7.08,5.23-9.27.95-.62,1.99-1.06,3.1-1.34.05-.01.1-.03.15-.05-.32-.9-.25-1.78.15-2.63.11-.23.27-.44.45-.62.21-.21.53-.19.71.01.18.2.16.47-.06.69-.26.27-.38.6-.42.96-.04.31-.03.63,0,.94.01.14.12.27.18.4.01.02.06.04.09.04.39-.04.79-.08,1.18-.11-.22-.92-.13-1.8.34-2.62.1-.17.24-.32.39-.45.21-.17.5-.13.66.06.17.2.14.45-.04.67-.52.61-.59,1.31-.41,2.05.05.22.2.34.47.36,1.45.11,2.84.5,4.11,1.2,3.79,2.09,5.8,5.32,6.02,9.64.07,1.37-.17,2.7-.64,4.01Zm-17.84-10.74c1.93-.61,3.69-.27,5.13,1.13,1.51,1.48,1.92,3.31,1.19,5.31-1.29,3.53-5.89,4.38-8.38,1.56-.31-.35-.56-.77-.82-1.14,0-.01,0,0,0,.03-.01,1.99.48,3.86,1.57,5.53,1.99,3.04,4.83,4.66,8.48,4.76,2.23.06,4.28-.57,6.07-1.89,3.07-2.27,4.52-5.35,4.23-9.15-.4-5.27-4.79-9.3-10.13-9.33-1.77-.01-3.43.42-4.98,1.28-.9.5-1.71,1.11-2.43,1.88,0,.01-.01.03-.02.04.02,0,.04-.01.09-.02Zm.81,3.76s.06,0,.1,0c.55,0,1.05-.37,1.21-.89.16-.54-.04-1.13-.51-1.43-.48-.31-1.11-.28-1.53.1-.38.34-.53.78-.39,1.28.15.55.53.85,1.12.94Z"/>
            <path class="cls-8" d="m105.37,136.43c-1.5,4.11-5.01,6.88-9.34,7.38-4.35.5-8.76-1.77-10.89-5.58-.99-1.78-1.53-3.69-1.45-5.73.14-3.98,1.9-7.08,5.23-9.27.95-.62,1.99-1.06,3.1-1.34.05-.01.1-.03.15-.05-.32-.9-.25-1.78.15-2.63.11-.23.27-.44.45-.62.21-.21.53-.19.71.01.18.2.16.47-.06.69-.26.27-.38.6-.42.96-.04.31-.03.63,0,.94.01.14.12.27.18.4.01.02.06.04.09.04.39-.04.79-.08,1.18-.11-.22-.92-.13-1.8.34-2.62.1-.17.24-.32.39-.45.21-.17.5-.13.66.06.17.2.14.45-.04.67-.52.61-.59,1.31-.41,2.05.05.22.2.34.47.36,1.45.11,2.84.5,4.11,1.2,3.79,2.09,5.8,5.32,6.02,9.64.07,1.37-.17,2.7-.64,4.01Zm-17.84-10.74c1.93-.61,3.69-.27,5.13,1.13,1.51,1.48,1.92,3.31,1.19,5.31-1.29,3.53-5.89,4.38-8.38,1.56-.31-.35-.56-.77-.82-1.14,0-.01,0,0,0,.03-.01,1.99.48,3.86,1.57,5.53,1.99,3.04,4.83,4.66,8.48,4.76,2.23.06,4.28-.57,6.07-1.89,3.07-2.27,4.52-5.35,4.23-9.15-.4-5.27-4.79-9.3-10.13-9.33-1.77-.01-3.43.42-4.98,1.28-.9.5-1.71,1.11-2.43,1.88,0,.01-.01.03-.02.04.02,0,.04-.01.09-.02Zm.81,3.76s.06,0,.1,0c.55,0,1.05-.37,1.21-.89.16-.54-.04-1.13-.51-1.43-.48-.31-1.11-.28-1.53.1-.38.34-.53.78-.39,1.28.15.55.53.85,1.12.94Z"/>
          </g>
          <g>
            <path class="cls-4" d="m146.82,149.4c-.69.14-2.34.47-2.79-1.79s.94-2.62,3.88-3.46c1.83-.49,9.93-2.75,11.6-3.21,5.5-1.44,14.33-3.63,14.81-3.73.6-.12,2.34-.47,2.77,1.67s-.86,2.4-3.68,3.21c-7.22,2.04-12.43,9.54-11.15,15.91,1.44,7.18,8.79,7.67,11.57,7.7.51.02,2.69-.16,3.13-.08.83.17,1.36.73,1.55,1.66.48,2.38-2.06,2.89-2.59,2.99-4.68.94-16.11-1.51-17.99-10.86-.61-3.06-.6-9.27,4.93-15.16-2.57.77-15.23,4.98-16.04,5.15Z"/>
            <path class="cls-11" d="m146.82,149.4c-.69.14-2.34.47-2.79-1.79s.94-2.62,3.88-3.46c1.83-.49,9.93-2.75,11.6-3.21,5.5-1.44,14.33-3.63,14.81-3.73.6-.12,2.34-.47,2.77,1.67s-.86,2.4-3.68,3.21c-7.22,2.04-12.43,9.54-11.15,15.91,1.44,7.18,8.79,7.67,11.57,7.7.51.02,2.69-.16,3.13-.08.83.17,1.36.73,1.55,1.66.48,2.38-2.06,2.89-2.59,2.99-4.68.94-16.11-1.51-17.99-10.86-.61-3.06-.6-9.27,4.93-15.16-2.57.77-15.23,4.98-16.04,5.15Z"/>
          </g>
        </g>
        <g>
          <g>
            <g>
              <path class="cls-2" d="m129.49,55.89c-.22.93-2.42,4.36-2.84,5.09-2.54,4.63-3.42,8.29-3.64,9.21-1.74,7.22.03,13.08,2.58,13.7.97.23,1.64.1,3.49-1.27,1.62-1.23,2.03-1.52,3.05-1.27.74.18,2.28,1.09,1.82,3.03-.52,2.18-5.54,6.11-9.84,5.07-6.53-1.57-8.19-11.96-5.92-21.36,1.61-6.67,5.27-12.93,5.94-13.9.31-.46,1.55-1.98,3.03-1.62,1.57.38,2.76,1.55,2.34,3.31Zm17.94,5.84c.74.18,2.04.69,3.96,4.72,3.31,7.02,2.12,14.57,1.3,17.99-.67,2.78-1.53,5.95-4.68,5.19-2.41-.58-1.93-2.57-1.72-3.45.16-.65.95-3.35,1.09-3.9,1.18-4.91.67-10.71-2.15-15.26-.77-1.26-1.07-1.87-1.04-2.8.06-1.46,1.63-2.89,3.25-2.5Z"/>
              <path class="cls-8" d="m129.49,55.89c-.22.93-2.42,4.36-2.84,5.09-2.54,4.63-3.42,8.29-3.64,9.21-1.74,7.22.03,13.08,2.58,13.7.97.23,1.64.1,3.49-1.27,1.62-1.23,2.03-1.52,3.05-1.27.74.18,2.28,1.09,1.82,3.03-.52,2.18-5.54,6.11-9.84,5.07-6.53-1.57-8.19-11.96-5.92-21.36,1.61-6.67,5.27-12.93,5.94-13.9.31-.46,1.55-1.98,3.03-1.62,1.57.38,2.76,1.55,2.34,3.31Zm17.94,5.84c.74.18,2.04.69,3.96,4.72,3.31,7.02,2.12,14.57,1.3,17.99-.67,2.78-1.53,5.95-4.68,5.19-2.41-.58-1.93-2.57-1.72-3.45.16-.65.95-3.35,1.09-3.9,1.18-4.91.67-10.71-2.15-15.26-.77-1.26-1.07-1.87-1.04-2.8.06-1.46,1.63-2.89,3.25-2.5Z"/>
            </g>
            <g>
              <path class="cls-4" d="m165.96,72.17c-.69.14-2.34.47-2.79-1.79s.94-2.62,3.88-3.46c1.83-.49,9.93-2.75,11.6-3.21,5.5-1.44,14.33-3.63,14.81-3.73.6-.12,2.34-.47,2.77,1.67s-.86,2.4-3.68,3.21c-7.22,2.04-12.43,9.54-11.15,15.91,1.44,7.18,8.79,7.67,11.57,7.7.51.02,2.69-.16,3.13-.08.83.17,1.36.73,1.55,1.66.48,2.38-2.06,2.89-2.59,2.99-4.68.94-16.11-1.51-17.99-10.86-.61-3.06-.6-9.27,4.93-15.16-2.57.77-15.23,4.98-16.04,5.15Z"/>
              <path class="cls-11" d="m165.96,72.17c-.69.14-2.34.47-2.79-1.79s.94-2.62,3.88-3.46c1.83-.49,9.93-2.75,11.6-3.21,5.5-1.44,14.33-3.63,14.81-3.73.6-.12,2.34-.47,2.77,1.67s-.86,2.4-3.68,3.21c-7.22,2.04-12.43,9.54-11.15,15.91,1.44,7.18,8.79,7.67,11.57,7.7.51.02,2.69-.16,3.13-.08.83.17,1.36.73,1.55,1.66.48,2.38-2.06,2.89-2.59,2.99-4.68.94-16.11-1.51-17.99-10.86-.61-3.06-.6-9.27,4.93-15.16-2.57.77-15.23,4.98-16.04,5.15Z"/>
            </g>
          </g>
          <g>
            <g>
              <path class="cls-4" d="m93.1,78.08c.96,3.26,2.02,6.86-2.18,8.1s-5.29-2.45-5.92-4.59l-.23-.77c-8.99,3.96-19.16,7.42-28.85,10.28-2.66.78-5.57,1.64-6.71-2.22s1.97-4.68,5.49-5.72l-6.88-23.33c-4.55,1.34-7.63,2.25-8.69-1.35s2.26-4.67,5.69-5.69l37.65-11.11c3.43-1.01,6.8-1.91,7.86,1.69s-2.71,4.71-3.74,5.02l-2.06.61,8.58,29.07Zm-16.98-26.59l-20.32,6,.94,3.17,20.32-6-.94-3.17Zm2.78,9.43l-20.32,6,1.01,3.43,20.32-6-1.01-3.43Zm2.88,9.78l-20.32,6,1.19,4.03c9.73-3.06,14.87-5.22,19.94-7.28l-.81-2.74Zm-23.35-36.34c-.11-.49.25-.82.59-.89.21-.05.5,0,.72.2.15.14.64.89.75,1.03.72-.24,1.08-.39,1.71-.64.16-.06.74-.3.84-.32.36-.08.73.17.82.6.14.64-.21.9-2.33,1.61.11.12.37.41.59.63.36-.14,2.06-.91,2.27-.96.32-.07.72.16.82.6.14.63-.18.87-1.95,1.5.11.1.69.66.95.83.45.29.72.47.82.91.16.74-.56,1.02-.77,1.07-.25.05-.71,0-.84,0-1.61-.17-2.68.06-3.04.14-.44.1-1.6.35-1.43,1.13.21.97,2.56.46,3.27.3.27-.06.87-.19,1.45-.39.09-.03.25-.08.35-.1.44-.1.79.22.86.56.03.13.12.55-.31.83-.21.15-1.07.44-2.03.66-1.35.3-2.97.5-4.04,0-.82-.37-1.17-1.06-1.26-1.48-.19-.85.35-1.53.57-1.76.28-.29.77-.78,2.49-1.16,1.25-.28,2.02-.21,2.34-.19-.3-.18-.47-.29-1-.8-1.2.4-2.58.78-3.82,1.05-.94.21-1.71.38-1.89-.45-.11-.48.21-.82.6-.91.25-.05,1.06-.17,1.14-.19.21-.04.48-.07,1.05-.2s1.25-.29,1.83-.46c-.25-.29-.38-.43-.59-.69-1.57.41-1.74.46-2.3.58-.47.1-1.17.26-1.41.2-.21-.04-.49-.21-.57-.56-.06-.26-.05-.75.66-.91.26-.06,1.4-.28,1.62-.33.52-.11.76-.18.98-.24-.41-.51-.46-.66-.5-.81Zm-33.79,20.29l4.56-1.35c2.11-.62,4.33.58,4.95,2.69l5.13,17.38c.62,2.11-.58,4.33-2.69,4.95l-4.56,1.35c-5.05,1.49-10.36-1.4-11.85-6.45l-1.99-6.73c-1.49-5.05,1.4-10.36,6.45-11.85Zm83.51,2.57l-4.56,1.35c-2.11.62-4.33-.58-4.95-2.69l-5.13-17.38c-.62-2.11.58-4.33,2.69-4.95l4.56-1.35c5.05-1.49,10.36,1.4,11.85,6.45l1.99,6.73c1.49,5.05-1.4,10.36-6.45,11.85ZM50.85,3.18c-17.8,5.25-32.26,22.33-26.04,48.98l2.87-.85c-4.87-21.57,4.47-39.51,24.02-45.27s37.13,4.23,44.74,24.99l2.87-.85C90.06,4.43,68.64-2.07,50.85,3.18Zm-15.61,75.55l-2.14.63-7.38-25.03,2.14-.63,7.38,25.03Zm71.87-21.2l-2.14.63-7.38-25.03,2.14-.63,7.38,25.03Z"/>
              <path class="cls-12" d="m93.1,78.08c.96,3.26,2.02,6.86-2.18,8.1s-5.29-2.45-5.92-4.59l-.23-.77c-8.99,3.96-19.16,7.42-28.85,10.28-2.66.78-5.57,1.64-6.71-2.22s1.97-4.68,5.49-5.72l-6.88-23.33c-4.55,1.34-7.63,2.25-8.69-1.35s2.26-4.67,5.69-5.69l37.65-11.11c3.43-1.01,6.8-1.91,7.86,1.69s-2.71,4.71-3.74,5.02l-2.06.61,8.58,29.07Zm-16.98-26.59l-20.32,6,.94,3.17,20.32-6-.94-3.17Zm2.78,9.43l-20.32,6,1.01,3.43,20.32-6-1.01-3.43Zm2.88,9.78l-20.32,6,1.19,4.03c9.73-3.06,14.87-5.22,19.94-7.28l-.81-2.74Zm-23.35-36.34c-.11-.49.25-.82.59-.89.21-.05.5,0,.72.2.15.14.64.89.75,1.03.72-.24,1.08-.39,1.71-.64.16-.06.74-.3.84-.32.36-.08.73.17.82.6.14.64-.21.9-2.33,1.61.11.12.37.41.59.63.36-.14,2.06-.91,2.27-.96.32-.07.72.16.82.6.14.63-.18.87-1.95,1.5.11.1.69.66.95.83.45.29.72.47.82.91.16.74-.56,1.02-.77,1.07-.25.05-.71,0-.84,0-1.61-.17-2.68.06-3.04.14-.44.1-1.6.35-1.43,1.13.21.97,2.56.46,3.27.3.27-.06.87-.19,1.45-.39.09-.03.25-.08.35-.1.44-.1.79.22.86.56.03.13.12.55-.31.83-.21.15-1.07.44-2.03.66-1.35.3-2.97.5-4.04,0-.82-.37-1.17-1.06-1.26-1.48-.19-.85.35-1.53.57-1.76.28-.29.77-.78,2.49-1.16,1.25-.28,2.02-.21,2.34-.19-.3-.18-.47-.29-1-.8-1.2.4-2.58.78-3.82,1.05-.94.21-1.71.38-1.89-.45-.11-.48.21-.82.6-.91.25-.05,1.06-.17,1.14-.19.21-.04.48-.07,1.05-.2s1.25-.29,1.83-.46c-.25-.29-.38-.43-.59-.69-1.57.41-1.74.46-2.3.58-.47.1-1.17.26-1.41.2-.21-.04-.49-.21-.57-.56-.06-.26-.05-.75.66-.91.26-.06,1.4-.28,1.62-.33.52-.11.76-.18.98-.24-.41-.51-.46-.66-.5-.81Zm-33.79,20.29l4.56-1.35c2.11-.62,4.33.58,4.95,2.69l5.13,17.38c.62,2.11-.58,4.33-2.69,4.95l-4.56,1.35c-5.05,1.49-10.36-1.4-11.85-6.45l-1.99-6.73c-1.49-5.05,1.4-10.36,6.45-11.85Zm83.51,2.57l-4.56,1.35c-2.11.62-4.33-.58-4.95-2.69l-5.13-17.38c-.62-2.11.58-4.33,2.69-4.95l4.56-1.35c5.05-1.49,10.36,1.4,11.85,6.45l1.99,6.73c1.49,5.05-1.4,10.36-6.45,11.85ZM50.85,3.18c-17.8,5.25-32.26,22.33-26.04,48.98l2.87-.85c-4.87-21.57,4.47-39.51,24.02-45.27s37.13,4.23,44.74,24.99l2.87-.85C90.06,4.43,68.64-2.07,50.85,3.18Zm-15.61,75.55l-2.14.63-7.38-25.03,2.14-.63,7.38,25.03Zm71.87-21.2l-2.14.63-7.38-25.03,2.14-.63,7.38,25.03Z"/>
            </g>
            <g>
              <rect class="cls-7" x="17" y="62.65" width="19.92" height="2.98" transform="translate(-17.05 10.25) rotate(-16.44)"/>
              <rect class="cls-7" x="18.89" y="68.3" width="19.92" height="2.98" transform="translate(-18.57 11.02) rotate(-16.44)"/>
              <rect class="cls-7" x="94.08" y="39.95" width="19.64" height="2.98" transform="translate(-7.48 31.09) rotate(-16.44)"/>
              <rect class="cls-7" x="95.97" y="45.57" width="19.92" height="2.98" transform="translate(-8.99 31.89) rotate(-16.44)"/>
            </g>
          </g>
        </g>
      </g>
      <line class="cls-3" x1="11.85" y1="106.27" x2="58.85" y2="170.27"/>
      <line class="cls-3" x1="235.85" y1="106.27" x2="188.85" y2="170.27"/>
      <line class="cls-5" x1="245.72" y1="154.64" x2="206.5" y2="174.69"/>
      <line class="cls-5" x1="1.5" y1="154.64" x2="40.72" y2="174.69"/>
    </g>
  </g>
</svg>